<?xml version="1.0" encoding="UTF-8" standalone="no"?>
<!-- Created with Inkscape (http://www.inkscape.org/) -->

<svg
   xmlns:dc="http://purl.org/dc/elements/1.1/"
   xmlns:cc="http://creativecommons.org/ns#"
   xmlns:rdf="http://www.w3.org/1999/02/22-rdf-syntax-ns#"
   xmlns:svg="http://www.w3.org/2000/svg"
   xmlns="http://www.w3.org/2000/svg"
   xmlns:sodipodi="http://sodipodi.sourceforge.net/DTD/sodipodi-0.dtd"
   xmlns:inkscape="http://www.inkscape.org/namespaces/inkscape"
   width="680"
   height="240"
   id="svg3261"
   version="1.1"
   inkscape:version="0.48.3.1 r9886"
   sodipodi:docname="New document 12">
  <defs
     id="defs3263" />
  <sodipodi:namedview
     id="base"
     pagecolor="#ffffff"
     bordercolor="#666666"
     borderopacity="1.0"
     inkscape:pageopacity="0.0"
     inkscape:pageshadow="2"
     inkscape:zoom="0.75"
     inkscape:cx="361.75759"
     inkscape:cy="37.738785"
     inkscape:document-units="px"
     inkscape:current-layer="flowRoot3269"
     showgrid="false"
     fit-margin-top="0"
     fit-margin-left="2.7755576e-17"
     fit-margin-right="0"
     fit-margin-bottom="0"
     inkscape:window-width="919"
     inkscape:window-height="744"
     inkscape:window-x="502"
     inkscape:window-y="40"
     inkscape:window-maximized="0" />
  <metadata
     id="metadata3266">
    <rdf:RDF>
      <cc:Work
         rdf:about="">
        <dc:format>image/svg+xml</dc:format>
        <dc:type
           rdf:resource="http://purl.org/dc/dcmitype/StillImage" />
        <dc:title></dc:title>
      </cc:Work>
    </rdf:RDF>
  </metadata>
  <g
     id="layer1"
     inkscape:label="Layer 1"
     inkscape:groupmode="layer"
     transform="translate(-2.43099,179.83333)">
    <g
       transform="translate(-102.66667,-172)"
       style="font-size:40px;font-style:normal;font-weight:normal;line-height:125%;letter-spacing:0px;word-spacing:0px;fill:#000000;fill-opacity:1;stroke:none;font-family:Sans"
       id="flowRoot3269">
      <path
         d="m 163.40576,27.573186 0,14.115235 c -2.35259,-1.611288 -4.72124,-2.80367 -7.10596,-3.577149 -2.35258,-0.773394 -4.80179,-1.160113 -7.34765,-1.160156 -4.83402,4.3e-5 -8.60452,1.418011 -11.31152,4.253906 -2.67483,2.803747 -4.01223,6.735384 -4.01221,11.794922 -2e-5,5.059593 1.33738,9.007343 4.01221,11.843262 2.707,2.803723 6.4775,4.205577 11.31152,4.205566 2.70699,1.1e-5 5.269,-0.40282 7.68603,-1.208496 2.44917,-0.805651 4.70503,-1.998032 6.76758,-3.577148 l 0,14.163574 c -2.70708,0.999024 -5.46245,1.740234 -8.26611,2.223633 -2.77153,0.515624 -5.55912,0.773436 -8.36279,0.773437 -9.76468,-10e-7 -17.40237,-2.497557 -22.91309,-7.492675 -5.51075,-5.027333 -8.26612,-12.004377 -8.26611,-20.931153 -1e-5,-8.926722 2.75536,-15.887652 8.26611,-20.882812 5.51072,-5.027291 13.14841,-7.54096 22.91309,-7.541016 2.83589,5.6e-5 5.62349,0.257868 8.36279,0.773438 2.77144,0.483452 5.5268,1.224662 8.26611,2.223632"
         style="font-size:99px;font-weight:bold;fill:none;stroke:#000000;-inkscape-font-specification:Sans Bold"
         id="path3278"
         inkscape:connector-curvature="0" />
      <path
         d="m 218.6582,40.624944 c -1.51469,-0.708944 -3.02934,-1.224568 -4.54394,-1.546875 -1.48247,-0.354451 -2.981,-0.531697 -4.49561,-0.531738 -4.4473,4.1e-5 -7.87942,1.434122 -10.29638,4.302246 -2.3848,2.835972 -3.57718,6.912628 -3.57715,12.229981 l 0,24.943359 -17.30567,0 0,-54.140625 17.30567,0 0,8.894531 c 2.2236,-3.544873 4.7695,-6.122995 7.63769,-7.734375 2.90036,-1.6435 6.36471,-2.465276 10.39307,-2.465332 0.58003,5.6e-5 1.20845,0.03228 1.88525,0.09668 0.67671,0.03228 1.65962,0.128961 2.94873,0.290039 l 0.0483,15.662109"
         style="font-size:99px;font-weight:bold;fill:none;stroke:#000000;-inkscape-font-specification:Sans Bold"
         id="path3280"
         inkscape:connector-curvature="0" />
      <path
         d="m 251.62598,55.658636 c -3.60941,2.4e-5 -6.33255,0.612328 -8.16944,1.836914 -1.80471,1.22463 -2.70705,3.029316 -2.70703,5.414062 -2e-5,2.191421 0.72508,3.915541 2.17529,5.172364 1.4824,1.22462 3.52879,1.836924 6.13916,1.836914 3.25485,10e-6 5.99411,-1.160145 8.21778,-3.480469 2.22359,-2.352523 3.33541,-5.285138 3.33545,-8.797852 l 0,-1.981933 -8.99121,0 m 26.44189,-6.525879 0,30.88916 -17.45068,0 0,-8.024414 c -2.32035,3.287114 -4.9307,5.687991 -7.83106,7.202637 -2.90042,1.482421 -6.42922,2.223631 -10.58642,2.223632 -5.60744,-10e-7 -10.1675,-1.627441 -13.68018,-4.882324 -3.48047,-3.287102 -5.22071,-7.541004 -5.2207,-12.761719 -1e-5,-6.34861 2.17528,-11.005343 6.52588,-13.970214 4.38279,-2.964811 11.24705,-4.447231 20.59277,-4.447266 l 10.19971,0 0,-1.353516 c -4e-5,-2.739219 -1.07963,-4.737264 -3.23877,-5.99414 -2.15922,-1.289019 -5.52689,-1.93355 -10.10303,-1.933594 -3.70608,4.4e-5 -7.15432,0.370649 -10.34473,1.111816 -3.19044,0.741253 -6.15528,1.853069 -8.89453,3.33545 l 0,-13.196778 c 3.70604,-0.90229 7.42821,-1.579047 11.16651,-2.030273 3.73825,-0.483343 7.47653,-0.725042 11.21484,-0.725098 9.76461,5.6e-5 16.8061,1.933647 21.12451,5.800781 4.35053,3.835007 6.52582,10.086954 6.52588,18.75586"
         style="font-size:99px;font-weight:bold;fill:none;stroke:#000000;-inkscape-font-specification:Sans Bold"
         id="path3282"
         inkscape:connector-curvature="0" />
      <path
         d="m 360.19727,25.881292 17.30566,0 0,54.140625 -17.30566,0 0,-54.140625 m 0,-21.076172 17.30566,0 0,14.115234 -17.30566,0 0,-14.115234"
         style="font-size:99px;font-weight:bold;fill:none;stroke:#000000;-inkscape-font-specification:Sans Bold"
         id="path3286"
         inkscape:connector-curvature="0" />
      <path
         d="m 448.65918,47.054144 0,32.967773 -17.40234,0 0,-5.365723 0,-19.867675 c -5e-5,-4.672822 -0.11284,-7.895475 -0.33838,-9.667969 -0.19341,-1.772425 -0.5479,-3.077599 -1.06348,-3.915528 -0.6768,-1.127889 -1.59526,-1.998006 -2.75537,-2.610351 -1.1602,-0.644489 -2.48148,-0.966755 -3.96387,-0.966797 -3.60941,4.2e-5 -6.44534,1.401896 -8.50781,4.205566 -2.06253,2.77152 -3.09378,6.622591 -3.09375,11.553223 l 0,26.635254 -17.30566,0 0,-54.140625 17.30566,0 0,7.927734 c 2.61032,-3.158153 5.3818,-5.478464 8.31445,-6.960937 2.93258,-1.514594 6.17135,-2.271917 9.71631,-2.271973 6.2519,5.6e-5 10.9892,1.917534 14.21192,5.752442 3.25482,3.835006 4.88226,9.410196 4.88232,16.725586"
         style="font-size:99px;font-weight:bold;fill:none;stroke:#000000;-inkscape-font-specification:Sans Bold"
         id="path3288"
         inkscape:connector-curvature="0" />
      <path
         d="m 507.10205,27.573186 0,13.148438 c -3.7061,-1.546834 -7.28325,-2.706989 -10.73144,-3.480469 -3.44828,-0.773394 -6.70316,-1.160112 -9.76465,-1.160156 -3.28714,4.4e-5 -5.73636,0.418989 -7.34766,1.256836 -1.57912,0.805706 -2.36867,2.062541 -2.36865,3.770508 -2e-5,1.385779 0.59617,2.449255 1.78857,3.190429 1.22459,0.741246 3.39988,1.289097 6.52588,1.643555 l 3.04541,0.435059 c 8.86227,1.127962 14.82417,2.980987 17.88574,5.559082 3.06147,2.57815 4.59223,6.62258 4.59229,12.133301 -6e-5,5.768564 -2.12701,10.103033 -6.38086,13.003417 -4.25395,2.900391 -10.60258,4.350585 -19.0459,4.350586 -3.57717,-10e-7 -7.28322,-0.29004 -11.11816,-0.870117 -3.80275,-0.547851 -7.71827,-1.385741 -11.74658,-2.513672 l 0,-13.148437 c 3.44823,1.675795 6.97703,2.932629 10.58642,3.770508 3.64158,0.837901 7.33152,1.256846 11.06983,1.256836 3.38375,10e-6 5.92965,-0.467275 7.63769,-1.401856 1.70797,-0.934558 2.56197,-2.320299 2.56201,-4.157226 -4e-5,-1.546858 -0.59623,-2.6909 -1.78857,-3.432129 -1.16019,-0.773418 -3.49662,-1.369609 -7.00928,-1.788575 l -3.04541,-0.386718 c -7.70217,-0.966775 -13.10011,-2.755347 -16.19385,-5.365723 -3.09375,-2.610322 -4.64063,-6.574186 -4.64062,-11.891602 -10e-6,-5.736283 1.96581,-9.990185 5.89746,-12.761718 3.93162,-2.771431 9.95799,-4.157171 18.0791,-4.157227 3.1904,5.6e-5 6.54196,0.241755 10.05469,0.725098 3.51265,0.483452 7.33149,1.240776 11.45654,2.271972"
         style="font-size:99px;font-weight:bold;fill:none;stroke:#000000;-inkscape-font-specification:Sans Bold"
         id="path3290"
         inkscape:connector-curvature="0" />
      <path
         d="m 525.56787,61.314397 17.40234,0 0,18.70752 -17.40234,0 0,-18.70752"
         style="font-size:99px;font-weight:bold;fill:none;stroke:#000000;-inkscape-font-specification:Sans Bold"
         id="path3292"
         inkscape:connector-curvature="0" />
      <path
         d="m 605.23193,27.573186 0,14.115235 c -2.35259,-1.611288 -4.72124,-2.80367 -7.10595,-3.577149 -2.35259,-0.773394 -4.8018,-1.160113 -7.34766,-1.160156 -4.83402,4.3e-5 -8.60452,1.418011 -11.31152,4.253906 -2.67483,2.803747 -4.01223,6.735384 -4.01221,11.794922 -2e-5,5.059593 1.33738,9.007343 4.01221,11.843262 2.707,2.803723 6.4775,4.205577 11.31152,4.205566 2.70699,1.1e-5 5.269,-0.40282 7.68604,-1.208496 2.44917,-0.805651 4.70502,-1.998032 6.76757,-3.577148 l 0,14.163574 c -2.70708,0.999024 -5.46245,1.740234 -8.26611,2.223633 -2.77153,0.515624 -5.55912,0.773436 -8.36279,0.773437 -9.76468,-10e-7 -17.40236,-2.497557 -22.91309,-7.492675 -5.51075,-5.027333 -8.26612,-12.004377 -8.26611,-20.931153 -10e-6,-8.926722 2.75536,-15.887652 8.26611,-20.882812 5.51073,-5.027291 13.14841,-7.54096 22.91309,-7.541016 2.8359,5.6e-5 5.62349,0.257868 8.36279,0.773438 2.77144,0.483452 5.52681,1.224662 8.26611,2.223632"
         style="font-size:99px;font-weight:bold;fill:none;stroke:#000000;-inkscape-font-specification:Sans Bold"
         id="path3294"
         inkscape:connector-curvature="0" />
      <path
         d="m 646.03076,36.951116 c -3.83499,4.3e-5 -6.7676,1.385784 -8.79785,4.157227 -1.99807,2.739294 -2.99709,6.703157 -2.99707,11.891601 -2e-5,5.188499 0.999,9.168475 2.99707,11.939942 2.03025,2.73927 4.96286,4.108897 8.79785,4.108886 3.77047,1.1e-5 6.65475,-1.369616 8.65283,-4.108886 1.99801,-2.771467 2.99703,-6.751443 2.99707,-11.939942 -4e-5,-5.188444 -0.99906,-9.152307 -2.99707,-11.891601 -1.99808,-2.771443 -4.88236,-4.157184 -8.65283,-4.157227 m 0,-12.375 c 9.31343,5.6e-5 16.58052,2.513725 21.80127,7.541016 5.25287,5.027386 7.87933,11.988317 7.8794,20.882812 -7e-5,8.89455 -2.62653,15.85548 -7.8794,20.882813 -5.22075,5.027345 -12.48784,7.541014 -21.80127,7.541015 -9.34573,-10e-7 -16.66115,-2.51367 -21.94629,-7.541015 -5.25293,-5.027333 -7.8794,-11.988263 -7.87939,-20.882813 -10e-6,-8.894495 2.62646,-15.855426 7.87939,-20.882812 5.28514,-5.027291 12.60056,-7.54096 21.94629,-7.541016"
         style="font-size:99px;font-weight:bold;fill:none;stroke:#000000;-inkscape-font-specification:Sans Bold"
         id="path3296"
         inkscape:connector-curvature="0" />
      <path
         d="m 738.50488,34.872503 c 2.19135,-3.351514 4.78558,-5.89741 7.78272,-7.637695 3.02923,-1.772407 6.34856,-2.658636 9.95801,-2.658692 6.21964,5.6e-5 10.95694,1.917534 14.21191,5.752442 3.25479,3.835006 4.88223,9.410196 4.88232,16.725586 l 0,32.967773 -17.40234,0 0,-28.230469 c 0.0322,-0.418916 0.0483,-0.853975 0.0483,-1.305176 0.0322,-0.451141 0.0483,-1.095672 0.0483,-1.933593 -8e-5,-3.834926 -0.56404,-6.606408 -1.69189,-8.314453 -1.12801,-1.740193 -2.94881,-2.61031 -5.46241,-2.610352 -3.28717,4.2e-5 -5.83307,1.353557 -7.63769,4.060547 -1.77252,2.707067 -2.69098,6.62259 -2.75537,11.746582 l 0,26.586914 -17.40235,0 0,-28.230469 c -4e-5,-5.994106 -0.51566,-9.845177 -1.54687,-11.553222 -1.03129,-1.740193 -2.86821,-2.61031 -5.51074,-2.610352 -3.31937,4.2e-5 -5.88138,1.36967 -7.68604,4.108887 -1.80471,2.707067 -2.70706,6.590363 -2.70703,11.649902 l 0,26.635254 -17.40234,0 0,-54.140625 17.40234,0 0,7.927734 c 2.12692,-3.061474 4.56003,-5.365671 7.29932,-6.912597 2.77144,-1.546821 5.81685,-2.320257 9.13623,-2.320313 3.73823,5.6e-5 7.04145,0.902398 9.90966,2.707031 2.86811,1.804739 5.0434,4.334521 6.52588,7.589356"
         style="font-size:99px;font-weight:bold;fill:none;stroke:#000000;-inkscape-font-specification:Sans Bold"
         id="path3298"
         inkscape:connector-curvature="0" />
      <path
         style="fill:none;stroke:#000000;stroke-width:1px;stroke-linecap:butt;stroke-linejoin:miter;stroke-opacity:1"
         d="m 292,4.33333 17.33334,1 L 309,46 l 20.66667,-20.33333 19.66667,0 -26,25 L 367,96 l -22,15.66667 50,58 -7.33333,20.66666 L 408,222 385.33334,197.33333 372,225.66667 388.33334,171 l -27,-31 -10,27 L 355,137.33333 331.33334,110 348,96.66667 l -38.66666,-39 1,22.666663 -18.33334,0 z"
         id="path3304"
         inkscape:connector-curvature="0" />
    </g>
  </g>
</svg>
